<svg width="594" height="66" viewBox="0 0 594 66" fill="none" xmlns="http://www.w3.org/2000/svg">
<path d="M38.712 47.472C39.048 47.952 39.216 48.456 39.216 48.984C39.216 49.704 38.952 50.28 38.424 50.712C37.944 51.096 37.392 51.288 36.768 51.288C36.144 51.288 35.616 51.024 35.184 50.496L15.096 25.224L5.304 34.44V48.768C5.256 49.44 5.016 49.992 4.584 50.424C4.152 50.808 3.624 51 3 51C2.328 51 1.776 50.808 1.344 50.424C0.96 49.992 0.768 49.44 0.768 48.768V2.832C0.768 2.16 0.984 1.632 1.416 1.248C1.848 0.815997 2.4 0.599997 3.072 0.599997C3.744 0.599997 4.272 0.815997 4.656 1.248C5.088 1.632 5.304 2.16 5.304 2.832V28.968L34.392 1.464C34.824 0.983999 35.352 0.743999 35.976 0.743999C36.552 0.743999 37.032 0.959999 37.416 1.392C37.848 1.824 38.064 2.304 38.064 2.832C38.064 3.408 37.848 3.912 37.416 4.344L18.552 21.984L38.712 47.472ZM52.4499 48.84C52.4499 49.464 52.2339 49.992 51.8019 50.424C51.4179 50.808 50.9139 51 50.2899 51C49.6659 51 49.1379 50.808 48.7059 50.424C48.3219 49.992 48.1299 49.464 48.1299 48.84V15.72C48.1299 15.096 48.3219 14.592 48.7059 14.208C49.1379 13.776 49.6659 13.56 50.2899 13.56C50.9139 13.56 51.4179 13.776 51.8019 14.208C52.2339 14.592 52.4499 15.096 52.4499 15.72V48.84ZM50.2899 8.736C49.3299 8.736 48.5859 8.52 48.0579 8.088C47.5299 7.608 47.2659 6.936 47.2659 6.072V5.352C47.2659 4.488 47.5299 3.84 48.0579 3.408C48.6339 2.928 49.4019 2.688 50.3619 2.688C52.2819 2.688 53.2419 3.576 53.2419 5.352V6.072C53.2419 6.936 52.9779 7.608 52.4499 8.088C51.9699 8.52 51.2499 8.736 50.2899 8.736ZM70.8724 18.384V42.504C70.8724 44.328 71.2084 45.576 71.8804 46.248C72.5524 46.872 73.4404 47.184 74.5444 47.184C74.8324 47.184 75.1924 47.136 75.6244 47.04C76.0564 46.896 76.3924 46.824 76.6324 46.824C77.0644 46.824 77.4244 47.016 77.7124 47.4C78.0484 47.736 78.2164 48.144 78.2164 48.624C78.2164 49.296 77.8324 49.872 77.0644 50.352C76.2964 50.784 75.3844 51 74.3284 51C73.0324 51 71.8804 50.88 70.8724 50.64C69.8644 50.4 68.8804 49.68 67.9204 48.48C67.0084 47.28 66.5524 45.36 66.5524 42.72V18.384H61.2964C60.7204 18.384 60.2164 18.192 59.7844 17.808C59.4004 17.424 59.2084 16.944 59.2084 16.368C59.2084 15.792 59.4004 15.312 59.7844 14.928C60.2164 14.544 60.7204 14.352 61.2964 14.352H66.5524V6.36C66.5524 5.736 66.7444 5.232 67.1284 4.848C67.5604 4.416 68.0884 4.2 68.7124 4.2C69.3364 4.2 69.8404 4.416 70.2244 4.848C70.6564 5.232 70.8724 5.736 70.8724 6.36V14.352H78.0724C78.6004 14.352 79.0564 14.568 79.4404 15C79.8724 15.432 80.0884 15.912 80.0884 16.44C80.0884 17.016 79.8964 17.496 79.5124 17.88C79.1284 18.216 78.6484 18.384 78.0724 18.384H70.8724ZM105.567 13.92C108.735 13.92 111.615 14.736 114.207 16.368C116.799 17.952 118.815 20.184 120.255 23.064C121.743 25.896 122.487 29.088 122.487 32.64C122.487 36.24 121.743 39.48 120.255 42.36C118.815 45.192 116.799 47.424 114.207 49.056C111.663 50.688 108.807 51.504 105.639 51.504C102.855 51.504 100.287 50.856 97.9348 49.56C95.6308 48.216 93.7828 46.44 92.3908 44.232V63.24C92.3908 63.864 92.1748 64.368 91.7428 64.752C91.3588 65.184 90.8548 65.4 90.2308 65.4C89.6068 65.4 89.0788 65.184 88.6468 64.752C88.2628 64.368 88.0708 63.864 88.0708 63.24V16.296C88.0708 15.672 88.2628 15.144 88.6468 14.712C89.0788 14.28 89.6068 14.064 90.2308 14.064C90.8548 14.064 91.3588 14.28 91.7428 14.712C92.1748 15.144 92.3908 15.672 92.3908 16.296V21.192C93.6388 18.936 95.4388 17.16 97.7908 15.864C100.143 14.568 102.735 13.92 105.567 13.92ZM105.207 47.472C107.703 47.472 109.935 46.848 111.903 45.6C113.919 44.304 115.479 42.528 116.583 40.272C117.735 38.016 118.311 35.472 118.311 32.64C118.311 29.856 117.735 27.36 116.583 25.152C115.479 22.896 113.919 21.144 111.903 19.896C109.935 18.6 107.703 17.952 105.207 17.952C102.663 17.952 100.383 18.576 98.3668 19.824C96.3508 21.072 94.7908 22.824 93.6868 25.08C92.5828 27.288 92.0308 29.808 92.0308 32.64C92.0308 35.472 92.5828 38.016 93.6868 40.272C94.7908 42.528 96.3508 44.304 98.3668 45.6C100.383 46.848 102.663 47.472 105.207 47.472ZM135.559 48.84C135.559 49.464 135.343 49.992 134.911 50.424C134.527 50.808 134.023 51 133.399 51C132.775 51 132.247 50.808 131.815 50.424C131.431 49.992 131.239 49.464 131.239 48.84V15.72C131.239 15.096 131.431 14.592 131.815 14.208C132.247 13.776 132.775 13.56 133.399 13.56C134.023 13.56 134.527 13.776 134.911 14.208C135.343 14.592 135.559 15.096 135.559 15.72V48.84ZM133.399 8.736C132.439 8.736 131.695 8.52 131.167 8.088C130.639 7.608 130.375 6.936 130.375 6.072V5.352C130.375 4.488 130.639 3.84 131.167 3.408C131.743 2.928 132.511 2.688 133.471 2.688C135.391 2.688 136.351 3.576 136.351 5.352V6.072C136.351 6.936 136.087 7.608 135.559 8.088C135.079 8.52 134.359 8.736 133.399 8.736ZM177.886 46.176C178.27 46.176 178.606 46.344 178.894 46.68C179.182 46.968 179.326 47.352 179.326 47.832C179.326 48.648 178.726 49.392 177.526 50.064C176.326 50.688 175.03 51 173.638 51C172.486 51 171.478 50.616 170.614 49.848C169.798 49.08 169.15 48.072 168.67 46.824C167.374 48.408 165.718 49.632 163.702 50.496C161.734 51.312 159.502 51.72 157.006 51.72C154.51 51.72 152.326 51.216 150.454 50.208C148.582 49.152 147.142 47.736 146.134 45.96C145.126 44.184 144.622 42.264 144.622 40.2C144.622 37.8 145.294 35.712 146.638 33.936C147.982 32.112 149.71 30.744 151.822 29.832C153.982 28.872 156.214 28.392 158.518 28.392C160.486 28.392 162.334 28.776 164.062 29.544C165.79 30.264 167.254 31.248 168.454 32.496V25.368C168.454 22.776 167.566 20.808 165.79 19.464C164.062 18.072 161.83 17.376 159.094 17.376C157.03 17.376 154.99 17.856 152.974 18.816C151.006 19.728 149.47 20.952 148.366 22.488C147.934 23.064 147.358 23.352 146.638 23.352C146.158 23.352 145.726 23.16 145.342 22.776C144.958 22.392 144.766 21.936 144.766 21.408C144.766 20.832 144.934 20.328 145.27 19.896C146.662 17.928 148.606 16.344 151.102 15.144C153.598 13.944 156.334 13.344 159.31 13.344C163.39 13.344 166.654 14.28 169.102 16.152C171.55 18.024 172.774 21 172.774 25.08V44.088C172.774 45.048 172.99 45.792 173.422 46.32C173.854 46.848 174.334 47.112 174.862 47.112C175.198 47.112 175.678 46.968 176.302 46.68C176.926 46.344 177.454 46.176 177.886 46.176ZM158.95 47.832C161.926 47.832 164.326 47.136 166.15 45.744C167.974 44.304 168.886 42.384 168.886 39.984C168.886 37.584 167.974 35.688 166.15 34.296C164.326 32.904 161.902 32.208 158.878 32.208C155.95 32.208 153.55 32.904 151.678 34.296C149.854 35.688 148.942 37.584 148.942 39.984C148.942 42.432 149.878 44.352 151.75 45.744C153.622 47.136 156.022 47.832 158.95 47.832ZM203.02 13.92C206.188 13.92 209.068 14.736 211.66 16.368C214.252 17.952 216.268 20.184 217.708 23.064C219.196 25.896 219.94 29.088 219.94 32.64C219.94 36.24 219.196 39.48 217.708 42.36C216.268 45.192 214.252 47.424 211.66 49.056C209.116 50.688 206.26 51.504 203.092 51.504C200.308 51.504 197.74 50.856 195.388 49.56C193.084 48.216 191.236 46.44 189.844 44.232V63.24C189.844 63.864 189.628 64.368 189.196 64.752C188.812 65.184 188.308 65.4 187.684 65.4C187.06 65.4 186.532 65.184 186.1 64.752C185.716 64.368 185.524 63.864 185.524 63.24V16.296C185.524 15.672 185.716 15.144 186.1 14.712C186.532 14.28 187.06 14.064 187.684 14.064C188.308 14.064 188.812 14.28 189.196 14.712C189.628 15.144 189.844 15.672 189.844 16.296V21.192C191.092 18.936 192.892 17.16 195.244 15.864C197.596 14.568 200.188 13.92 203.02 13.92ZM202.66 47.472C205.156 47.472 207.388 46.848 209.356 45.6C211.372 44.304 212.932 42.528 214.036 40.272C215.188 38.016 215.764 35.472 215.764 32.64C215.764 29.856 215.188 27.36 214.036 25.152C212.932 22.896 211.372 21.144 209.356 19.896C207.388 18.6 205.156 17.952 202.66 17.952C200.116 17.952 197.836 18.576 195.82 19.824C193.804 21.072 192.244 22.824 191.14 25.08C190.036 27.288 189.484 29.808 189.484 32.64C189.484 35.472 190.036 38.016 191.14 40.272C192.244 42.528 193.804 44.304 195.82 45.6C197.836 46.848 200.116 47.472 202.66 47.472ZM236.036 18.384V42.504C236.036 44.328 236.372 45.576 237.044 46.248C237.716 46.872 238.604 47.184 239.708 47.184C239.996 47.184 240.356 47.136 240.788 47.04C241.22 46.896 241.556 46.824 241.796 46.824C242.228 46.824 242.588 47.016 242.876 47.4C243.212 47.736 243.38 48.144 243.38 48.624C243.38 49.296 242.996 49.872 242.228 50.352C241.46 50.784 240.548 51 239.492 51C238.196 51 237.044 50.88 236.036 50.64C235.028 50.4 234.044 49.68 233.084 48.48C232.172 47.28 231.716 45.36 231.716 42.72V18.384H226.46C225.884 18.384 225.38 18.192 224.948 17.808C224.564 17.424 224.372 16.944 224.372 16.368C224.372 15.792 224.564 15.312 224.948 14.928C225.38 14.544 225.884 14.352 226.46 14.352H231.716V6.36C231.716 5.736 231.908 5.232 232.292 4.848C232.724 4.416 233.252 4.2 233.876 4.2C234.5 4.2 235.004 4.416 235.388 4.848C235.82 5.232 236.036 5.736 236.036 6.36V14.352H243.236C243.764 14.352 244.22 14.568 244.604 15C245.036 15.432 245.252 15.912 245.252 16.44C245.252 17.016 245.06 17.496 244.676 17.88C244.292 18.216 243.812 18.384 243.236 18.384H236.036ZM285.954 51.72C282.978 51.72 280.29 50.904 277.89 49.272C275.49 47.592 273.642 45.36 272.346 42.576C272.106 42.192 271.986 41.808 271.986 41.424C271.986 40.848 272.202 40.368 272.634 39.984C273.114 39.6 273.618 39.408 274.146 39.408C274.914 39.408 275.586 39.816 276.162 40.632C277.074 42.696 278.394 44.352 280.122 45.6C281.85 46.8 283.794 47.4 285.954 47.4C289.266 47.4 291.954 46.392 294.018 44.376C296.082 42.312 297.114 39.624 297.114 36.312V2.76C297.114 2.136 297.33 1.632 297.762 1.248C298.194 0.815997 298.746 0.599997 299.418 0.599997C300.09 0.599997 300.618 0.815997 301.002 1.248C301.434 1.632 301.65 2.136 301.65 2.76V36.312C301.65 39.24 300.978 41.88 299.634 44.232C298.29 46.584 296.418 48.432 294.018 49.776C291.666 51.072 288.978 51.72 285.954 51.72ZM345.23 46.176C345.614 46.176 345.95 46.344 346.238 46.68C346.526 46.968 346.67 47.352 346.67 47.832C346.67 48.648 346.07 49.392 344.87 50.064C343.67 50.688 342.374 51 340.982 51C339.83 51 338.822 50.616 337.958 49.848C337.142 49.08 336.494 48.072 336.014 46.824C334.718 48.408 333.062 49.632 331.046 50.496C329.078 51.312 326.846 51.72 324.35 51.72C321.854 51.72 319.67 51.216 317.798 50.208C315.926 49.152 314.486 47.736 313.478 45.96C312.47 44.184 311.966 42.264 311.966 40.2C311.966 37.8 312.638 35.712 313.982 33.936C315.326 32.112 317.054 30.744 319.166 29.832C321.326 28.872 323.558 28.392 325.862 28.392C327.83 28.392 329.678 28.776 331.406 29.544C333.134 30.264 334.598 31.248 335.798 32.496V25.368C335.798 22.776 334.91 20.808 333.134 19.464C331.406 18.072 329.174 17.376 326.438 17.376C324.374 17.376 322.334 17.856 320.318 18.816C318.35 19.728 316.814 20.952 315.71 22.488C315.278 23.064 314.702 23.352 313.982 23.352C313.502 23.352 313.07 23.16 312.686 22.776C312.302 22.392 312.11 21.936 312.11 21.408C312.11 20.832 312.278 20.328 312.614 19.896C314.006 17.928 315.95 16.344 318.446 15.144C320.942 13.944 323.678 13.344 326.654 13.344C330.734 13.344 333.998 14.28 336.446 16.152C338.894 18.024 340.118 21 340.118 25.08V44.088C340.118 45.048 340.334 45.792 340.766 46.32C341.198 46.848 341.678 47.112 342.206 47.112C342.542 47.112 343.022 46.968 343.646 46.68C344.27 46.344 344.798 46.176 345.23 46.176ZM326.294 47.832C329.27 47.832 331.67 47.136 333.494 45.744C335.318 44.304 336.23 42.384 336.23 39.984C336.23 37.584 335.318 35.688 333.494 34.296C331.67 32.904 329.246 32.208 326.222 32.208C323.294 32.208 320.894 32.904 319.021 34.296C317.198 35.688 316.286 37.584 316.286 39.984C316.286 42.432 317.222 44.352 319.094 45.744C320.966 47.136 323.366 47.832 326.294 47.832ZM370.076 13.344C371.036 13.344 371.9 13.536 372.668 13.92C373.436 14.304 373.82 14.88 373.82 15.648C373.82 16.32 373.628 16.872 373.244 17.304C372.86 17.688 372.404 17.88 371.876 17.88C371.636 17.88 371.156 17.76 370.436 17.52C369.764 17.28 369.116 17.16 368.492 17.16C366.716 17.16 364.94 17.856 363.164 19.248C361.436 20.592 359.996 22.344 358.844 24.504C357.74 26.664 357.188 28.848 357.188 31.056V48.84C357.188 49.464 356.972 49.992 356.54 50.424C356.156 50.808 355.652 51 355.028 51C354.404 51 353.876 50.808 353.444 50.424C353.06 49.992 352.868 49.464 352.868 48.84V16.584C352.868 15.96 353.06 15.456 353.444 15.072C353.876 14.64 354.404 14.424 355.028 14.424C355.652 14.424 356.156 14.64 356.54 15.072C356.972 15.456 357.188 15.96 357.188 16.584V22.92C358.292 20.184 359.948 17.928 362.156 16.152C364.412 14.328 367.052 13.392 370.076 13.344ZM384.747 48.84C384.747 49.464 384.531 49.992 384.099 50.424C383.715 50.808 383.211 51 382.587 51C381.963 51 381.435 50.808 381.003 50.424C380.619 49.992 380.427 49.464 380.427 48.84V15.72C380.427 15.096 380.619 14.592 381.003 14.208C381.435 13.776 381.963 13.56 382.587 13.56C383.211 13.56 383.715 13.776 384.099 14.208C384.531 14.592 384.747 15.096 384.747 15.72V48.84ZM382.587 8.736C381.627 8.736 380.883 8.52 380.355 8.088C379.827 7.608 379.563 6.936 379.563 6.072V5.352C379.563 4.488 379.827 3.84 380.355 3.408C380.931 2.928 381.699 2.688 382.659 2.688C384.579 2.688 385.539 3.576 385.539 5.352V6.072C385.539 6.936 385.275 7.608 384.747 8.088C384.267 8.52 383.547 8.736 382.587 8.736ZM403.169 18.384V42.504C403.169 44.328 403.505 45.576 404.177 46.248C404.849 46.872 405.737 47.184 406.841 47.184C407.129 47.184 407.489 47.136 407.921 47.04C408.353 46.896 408.689 46.824 408.929 46.824C409.361 46.824 409.721 47.016 410.009 47.4C410.345 47.736 410.513 48.144 410.513 48.624C410.513 49.296 410.129 49.872 409.361 50.352C408.593 50.784 407.681 51 406.625 51C405.329 51 404.177 50.88 403.169 50.64C402.161 50.4 401.177 49.68 400.217 48.48C399.305 47.28 398.849 45.36 398.849 42.72V18.384H393.593C393.017 18.384 392.513 18.192 392.081 17.808C391.697 17.424 391.505 16.944 391.505 16.368C391.505 15.792 391.697 15.312 392.081 14.928C392.513 14.544 393.017 14.352 393.593 14.352H398.849V6.36C398.849 5.736 399.041 5.232 399.425 4.848C399.857 4.416 400.385 4.2 401.009 4.2C401.633 4.2 402.137 4.416 402.521 4.848C402.953 5.232 403.169 5.736 403.169 6.36V14.352H410.369C410.897 14.352 411.353 14.568 411.737 15C412.169 15.432 412.385 15.912 412.385 16.44C412.385 17.016 412.193 17.496 411.809 17.88C411.425 18.216 410.945 18.384 410.369 18.384H403.169ZM466.955 13.416C467.579 13.416 468.083 13.608 468.467 13.992C468.899 14.376 469.115 14.904 469.115 15.576C469.115 15.624 469.043 15.936 468.899 16.512L457.811 49.632C457.571 50.064 457.259 50.424 456.875 50.712C456.491 50.952 456.083 51.048 455.651 51C455.219 51 454.835 50.88 454.499 50.64C454.163 50.4 453.899 50.064 453.707 49.632L444.275 27.456L435.851 49.632C435.659 50.016 435.371 50.352 434.987 50.64C434.651 50.88 434.291 51 433.907 51C433.427 51.048 432.971 50.952 432.539 50.712C432.155 50.424 431.891 50.064 431.747 49.632L420.371 16.512C420.227 16.224 420.155 15.912 420.155 15.576C420.155 14.952 420.371 14.448 420.803 14.064C421.235 13.632 421.763 13.416 422.387 13.416C422.819 13.416 423.203 13.56 423.539 13.848C423.923 14.088 424.187 14.424 424.331 14.856L433.907 43.584L442.475 22.056C442.811 21.144 443.483 20.688 444.491 20.688C445.451 20.688 446.123 21.144 446.507 22.056L455.507 43.44L464.939 14.856C465.227 13.896 465.899 13.416 466.955 13.416ZM511.375 32.568C511.375 36.168 510.583 39.432 508.999 42.36C507.415 45.288 505.231 47.592 502.447 49.272C499.663 50.904 496.567 51.72 493.159 51.72C489.751 51.72 486.655 50.904 483.871 49.272C481.087 47.592 478.903 45.288 477.319 42.36C475.735 39.432 474.943 36.168 474.943 32.568C474.943 28.968 475.735 25.704 477.319 22.776C478.903 19.848 481.087 17.544 483.871 15.864C486.655 14.184 489.751 13.344 493.159 13.344C496.567 13.344 499.663 14.184 502.447 15.864C505.231 17.544 507.415 19.848 508.999 22.776C510.583 25.704 511.375 28.968 511.375 32.568ZM507.055 32.568C507.055 29.688 506.455 27.096 505.255 24.792C504.055 22.488 502.375 20.688 500.215 19.392C498.103 18.048 495.751 17.376 493.159 17.376C490.567 17.376 488.215 18.048 486.103 19.392C483.991 20.688 482.311 22.488 481.063 24.792C479.863 27.096 479.263 29.688 479.263 32.568C479.263 35.4 479.863 37.968 481.063 40.272C482.311 42.576 483.991 44.4 486.103 45.744C488.215 47.04 490.567 47.688 493.159 47.688C495.751 47.688 498.103 47.04 500.215 45.744C502.375 44.448 504.055 42.648 505.255 40.344C506.455 38.04 507.055 35.448 507.055 32.568ZM537.563 13.344C542.027 13.344 545.291 14.664 547.355 17.304C549.467 19.896 550.523 23.352 550.523 27.672V48.84C550.523 49.464 550.307 49.992 549.875 50.424C549.443 50.808 548.939 51 548.363 51C547.739 51 547.211 50.808 546.779 50.424C546.395 49.992 546.203 49.464 546.203 48.84V27.888C546.203 24.768 545.411 22.248 543.827 20.328C542.291 18.36 539.891 17.376 536.627 17.376C534.563 17.376 532.595 17.856 530.723 18.816C528.899 19.776 527.411 21.072 526.259 22.704C525.107 24.288 524.531 26.016 524.531 27.888V48.84C524.531 49.464 524.315 49.992 523.883 50.424C523.499 50.808 522.995 51 522.371 51C521.747 51 521.219 50.808 520.787 50.424C520.403 49.992 520.211 49.464 520.211 48.84V16.584C520.211 15.96 520.403 15.456 520.787 15.072C521.219 14.64 521.747 14.424 522.371 14.424C522.995 14.424 523.499 14.64 523.883 15.072C524.315 15.456 524.531 15.96 524.531 16.584V20.544C525.827 18.48 527.675 16.776 530.075 15.432C532.523 14.04 535.019 13.344 537.563 13.344ZM593.3 15.864C593.3 16.536 592.916 17.232 592.148 17.952L587.396 21.84C588.116 23.472 588.476 25.272 588.476 27.24C588.476 30.024 587.732 32.52 586.244 34.728C584.804 36.888 582.86 38.52 580.412 39.624C584.348 40.392 587.372 41.856 589.484 44.016C591.596 46.128 592.652 48.672 592.652 51.648C592.652 54.384 591.764 56.808 589.988 58.92C588.26 61.032 585.884 62.664 582.86 63.816C579.836 64.968 576.452 65.544 572.708 65.544C569.828 65.544 567.308 65.16 565.148 64.392C563.036 63.672 561.404 62.808 560.252 61.8C559.148 60.792 558.596 59.904 558.596 59.136C558.596 58.512 558.788 57.984 559.172 57.552C559.556 57.12 560.036 56.904 560.612 56.904C561.044 56.904 561.452 57.024 561.836 57.264C562.268 57.552 562.652 57.864 562.988 58.2C563.324 58.536 563.564 58.776 563.708 58.92C564.38 59.592 565.604 60.192 567.38 60.72C569.156 61.248 571.004 61.512 572.924 61.512C577.532 61.512 581.252 60.648 584.084 58.92C586.916 57.24 588.332 54.864 588.332 51.792C588.332 49.248 586.988 47.112 584.3 45.384C581.612 43.608 577.532 42.72 572.06 42.72C570.284 42.72 569.252 42.216 568.964 41.208L568.748 40.488C565.58 39.624 563.036 38.016 561.116 35.664C559.244 33.264 558.308 30.456 558.308 27.24C558.308 24.552 558.956 22.152 560.252 20.04C561.596 17.928 563.42 16.296 565.724 15.144C568.028 13.944 570.596 13.344 573.428 13.344C575.924 13.344 578.228 13.824 580.34 14.784C582.452 15.744 584.18 17.064 585.524 18.744L588.764 14.856C589.148 14.376 589.508 14.04 589.844 13.848C590.18 13.656 590.588 13.56 591.068 13.56C591.692 13.56 592.22 13.776 592.652 14.208C593.132 14.64 593.348 15.192 593.3 15.864ZM573.428 37.536C576.596 37.536 579.188 36.624 581.204 34.8C583.268 32.928 584.3 30.48 584.3 27.456C584.3 24.384 583.268 21.936 581.204 20.112C579.188 18.24 576.596 17.304 573.428 17.304C570.212 17.304 567.596 18.24 565.58 20.112C563.612 21.936 562.628 24.384 562.628 27.456C562.628 30.48 563.612 32.928 565.58 34.8C567.596 36.624 570.212 37.536 573.428 37.536Z" fill="white"/>
</svg>
